<?xml version="1.0" encoding="UTF-8"?>
<svg version="1.1" xmlns="http://www.w3.org/2000/svg" width="499" height="204">
<path d="M0 0 C0.99 0.33 1.98 0.66 3 1 C4.25717988 3.63000653 5.32100506 6.18265105 6.3359375 8.90625 C6.65200958 9.72636566 6.96808167 10.54648132 7.29373169 11.39144897 C8.33136321 14.09039159 9.35318355 16.79503469 10.375 19.5 C11.08542743 21.35737812 11.79702466 23.21430922 12.50976562 25.07080078 C13.59954726 27.90996873 14.68842435 30.74944935 15.77301025 33.59060669 C18.11896964 39.73233546 20.50971643 45.85422665 22.9453125 51.9609375 C23.40241104 53.10885773 23.40241104 53.10885773 23.8687439 54.27996826 C25.02843301 57.19058369 26.18892364 60.10084229 27.3571167 63.00805664 C28.14885266 64.98016408 28.93440286 66.95463229 29.71875 68.9296875 C30.16154297 70.03554199 30.60433594 71.14139648 31.06054688 72.28076172 C32 75 32 75 32 78 C26.72 78 21.44 78 16 78 C12.40330344 69.57363631 9.16748504 61.09978598 6.1875 52.4375 C5.78080078 51.27669922 5.37410156 50.11589844 4.95507812 48.91992188 C4.57158203 47.81068359 4.18808594 46.70144531 3.79296875 45.55859375 C3.4477417 44.56142334 3.10251465 43.56425293 2.74682617 42.53686523 C2 40 2 40 2 37 C1.34 37 0.68 37 0 37 C-0.21527344 38.155 -0.43054688 39.31 -0.65234375 40.5 C-2.12829149 47.13721344 -4.49660052 53.48280294 -6.7956543 59.86865234 C-7.57001608 62.02088997 -8.33537691 64.17617853 -9.09960938 66.33203125 C-12.85461045 76.85461045 -12.85461045 76.85461045 -14 78 C-16.69654854 78.07319621 -19.36691458 78.09242537 -22.0625 78.0625 C-22.82111328 78.05798828 -23.57972656 78.05347656 -24.36132812 78.04882812 C-26.24091871 78.0370068 -28.12046899 78.01907078 -30 78 C-29.35641425 74.28258799 -28.3242688 70.95347428 -26.9621582 67.43798828 C-26.54114334 66.34559845 -26.12012848 65.25320862 -25.68635559 64.12771606 C-25.00049629 62.3668013 -25.00049629 62.3668013 -24.30078125 60.5703125 C-23.82811325 59.34778778 -23.35544525 58.12526306 -22.86845398 56.86569214 C-21.61017473 53.61169967 -20.34690142 50.35966757 -19.08270264 47.10797119 C-18.06792284 44.49530927 -17.05674464 41.88126115 -16.0457325 39.26713943 C-11.847857 28.41307889 -7.64615416 17.55995958 -3.35546875 6.7421875 C-2.69067505 5.06552002 -2.69067505 5.06552002 -2.01245117 3.35498047 C-1 1 -1 1 0 0 Z " fill="#0A2A57" transform="translate(156,48)"/>
<path d="M0 0 C1.25361328 0.00644531 2.50722656 0.01289062 3.79882812 0.01953125 C5.76432617 0.04466797 5.76432617 0.04466797 7.76953125 0.0703125 C9.10481112 0.08034611 10.44009814 0.0894713 11.77539062 0.09765625 C15.0444514 0.12125958 18.31315153 0.15418656 21.58203125 0.1953125 C22.70703125 6.9453125 22.70703125 6.9453125 21.58203125 9.1953125 C13.66203125 9.5253125 5.74203125 9.8553125 -2.41796875 10.1953125 C-2.41796875 12.5053125 -2.41796875 14.8153125 -2.41796875 17.1953125 C-1.83829346 17.19942139 -1.25861816 17.20353027 -0.66137695 17.20776367 C1.98327234 17.24080527 4.62564964 17.31145514 7.26953125 17.3828125 C8.63754883 17.39151367 8.63754883 17.39151367 10.03320312 17.40039062 C14.64667441 17.55137696 16.91028418 17.68022127 20.6640625 20.55859375 C24.39990032 25.69441968 24.07696004 31.06843537 23.58203125 37.1953125 C22.86148433 39.8809874 21.96721231 41.74460755 20.58203125 44.1953125 C17.60843676 45.68210975 14.91903946 45.30643855 11.60546875 45.29296875 C10.92022125 45.2915538 10.23497375 45.29013885 9.52896118 45.28868103 C7.33827364 45.28307925 5.14768795 45.27052656 2.95703125 45.2578125 C1.47265773 45.25279772 -0.0117174 45.24823478 -1.49609375 45.24414062 C-5.1367519 45.23310927 -8.77735039 45.21584349 -12.41796875 45.1953125 C-12.41796875 42.5553125 -12.41796875 39.9153125 -12.41796875 37.1953125 C-9.84585553 35.90925589 -7.84889909 35.98487309 -4.97265625 35.87890625 C-3.89628906 35.83701172 -2.81992187 35.79511719 -1.7109375 35.75195312 C-0.58300781 35.71263672 0.54492188 35.67332031 1.70703125 35.6328125 C2.84269531 35.58962891 3.97835937 35.54644531 5.1484375 35.50195312 C7.95950893 35.3956521 10.7706707 35.29361845 13.58203125 35.1953125 C13.58203125 32.8853125 13.58203125 30.5753125 13.58203125 28.1953125 C12.99711914 28.17549316 12.41220703 28.15567383 11.80957031 28.13525391 C9.149951 28.03977769 6.49109287 27.93019108 3.83203125 27.8203125 C2.91164063 27.789375 1.99125 27.7584375 1.04296875 27.7265625 C0.15351562 27.68789062 -0.7359375 27.64921875 -1.65234375 27.609375 C-2.46928711 27.5779541 -3.28623047 27.5465332 -4.12792969 27.51416016 C-6.62974235 27.16582675 -8.28140819 26.53172571 -10.41796875 25.1953125 C-12.51847247 21.40773753 -12.7154641 17.97664037 -12.73046875 13.6953125 C-12.74722656 12.591875 -12.76398437 11.4884375 -12.78125 10.3515625 C-12.37632848 6.83353465 -11.53309129 5.00887128 -9.41796875 2.1953125 C-5.83128562 -0.19580959 -4.25400306 -0.03849777 0 0 Z " fill="#0A2955" transform="translate(55.41796875,73.8046875)"/>
<path d="M0 0 C4.32326033 -0.0992011 8.64591024 -0.17162265 12.9699707 -0.21972656 C14.43948921 -0.23978825 15.90892841 -0.26704478 17.37817383 -0.30175781 C19.49580487 -0.35052141 21.61237687 -0.37302161 23.73046875 -0.390625 C25.00301514 -0.41157227 26.27556152 -0.43251953 27.58666992 -0.45410156 C31.59398077 0.07902183 33.18515921 1.15382937 36 4 C38.6708012 9.72314543 38.73483744 14.79548768 36.75 20.75 C34.99405835 24.0110345 34.10656907 25.1561164 31 27 C28.52636719 27.34057617 28.52636719 27.34057617 25.796875 27.29296875 C24.32734375 27.2784668 24.32734375 27.2784668 22.828125 27.26367188 C21.30445313 27.2259668 21.30445313 27.2259668 19.75 27.1875 C18.71875 27.17396484 17.6875 27.16042969 16.625 27.14648438 C14.08310951 27.11118034 11.5414881 27.05737473 9 27 C9 32.94 9 38.88 9 45 C6.26752652 46.36623674 4.01801098 46.128426 1 46 C-0.77449594 44.22550406 -0.13030072 41.64982739 -0.1328125 39.25 C-0.13410156 38.0846875 -0.13539062 36.919375 -0.13671875 35.71875 C-0.13285156 34.4915625 -0.12898438 33.264375 -0.125 32 C-0.12886719 30.7728125 -0.13273437 29.545625 -0.13671875 28.28125 C-0.13542969 27.1159375 -0.13414063 25.950625 -0.1328125 24.75 C-0.13168457 23.67234375 -0.13055664 22.5946875 -0.12939453 21.484375 C0 19 0 19 1 18 C2.92478813 17.84193469 4.8549921 17.748865 6.78515625 17.68359375 C7.95498047 17.64169922 9.12480469 17.59980469 10.33007812 17.55664062 C12.17762695 17.49766602 12.17762695 17.49766602 14.0625 17.4375 C15.91584961 17.37272461 15.91584961 17.37272461 17.80664062 17.30664062 C20.87097335 17.20015802 23.93539073 17.09814576 27 17 C28.00217064 13.41672247 28.00217064 13.41672247 27 10 C18.09 9.67 9.18 9.34 0 9 C0 6.03 0 3.06 0 0 Z " fill="#092B58" transform="translate(83,74)"/>
<path d="M0 0 C1.15886719 -0.00128906 2.31773437 -0.00257812 3.51171875 -0.00390625 C5.32736328 0.00189453 5.32736328 0.00189453 7.1796875 0.0078125 C8.39785156 0.00394531 9.61601562 0.00007813 10.87109375 -0.00390625 C12.60552734 -0.00197266 12.60552734 -0.00197266 14.375 0 C15.43992676 0.00112793 16.50485352 0.00225586 17.60205078 0.00341797 C20.0546875 0.1328125 20.0546875 0.1328125 21.0546875 1.1328125 C21.1796875 4.6328125 21.1796875 4.6328125 21.0546875 8.1328125 C19.30962135 9.87787865 16.86429607 9.36564034 14.48828125 9.44921875 C13.36357422 9.49111328 12.23886719 9.53300781 11.08007812 9.57617188 C9.89607422 9.61548828 8.71207031 9.65480469 7.4921875 9.6953125 C6.30431641 9.73849609 5.11644531 9.78167969 3.89257812 9.82617188 C0.94673966 9.93264796 -1.9991868 10.03466091 -4.9453125 10.1328125 C-4.97431705 13.7369623 -4.99211268 17.34108212 -5.0078125 20.9453125 C-5.01619141 21.96947266 -5.02457031 22.99363281 -5.03320312 24.04882812 C-5.03642578 25.03173828 -5.03964844 26.01464844 -5.04296875 27.02734375 C-5.04820557 27.93331299 -5.05344238 28.83928223 -5.05883789 29.77270508 C-5.04452231 32.28565289 -5.04452231 32.28565289 -3.9453125 35.1328125 C-3.25904785 35.15786865 -2.5727832 35.1829248 -1.86572266 35.20874023 C1.23294567 35.32452677 4.33129673 35.44733135 7.4296875 35.5703125 C8.50992188 35.60962891 9.59015625 35.64894531 10.703125 35.68945312 C11.734375 35.73134766 12.765625 35.77324219 13.828125 35.81640625 C14.78122559 35.85306396 15.73432617 35.88972168 16.71630859 35.92749023 C19.0546875 36.1328125 19.0546875 36.1328125 21.0546875 37.1328125 C21.0546875 39.7728125 21.0546875 42.4128125 21.0546875 45.1328125 C17.35634469 46.9819839 12.9372427 46.3175606 8.8671875 46.3203125 C7.46629883 46.33868164 7.46629883 46.33868164 6.03710938 46.35742188 C-0.2468351 46.37068847 -5.94939697 46.23805044 -11.2578125 42.5078125 C-15.34345854 36.757644 -15.28527087 29.49949692 -15.2578125 22.6953125 C-15.27392578 21.90060547 -15.29003906 21.10589844 -15.30664062 20.28710938 C-15.31167421 14.10082727 -14.63865527 7.35154972 -10.52856445 2.43969727 C-7.29551553 -0.22900141 -4.00300626 0.00423087 0 0 Z " fill="#092955" transform="translate(212.9453125,73.8671875)"/>
<path d="M0 0 C0.68146088 0.00187317 1.36292175 0.00374634 2.06503296 0.00567627 C3.50238961 0.01238894 4.93972824 0.02628807 6.37695312 0.046875 C8.58480673 0.078109 10.79194709 0.087854 13 0.09375 C23.79747322 0.16466072 23.79747322 0.16466072 24.9609375 1.328125 C25.0859375 4.828125 25.0859375 4.828125 24.9609375 8.328125 C23.9609375 9.328125 23.9609375 9.328125 21.55249023 9.44165039 C20.51036377 9.43641357 19.4682373 9.43117676 18.39453125 9.42578125 C17.26982422 9.42255859 16.14511719 9.41933594 14.98632812 9.41601562 C13.80232422 9.40763672 12.61832031 9.39925781 11.3984375 9.390625 C10.21056641 9.38611328 9.02269531 9.38160156 7.79882812 9.37695312 C4.85281524 9.36512175 1.90690069 9.34863787 -1.0390625 9.328125 C-0.7090625 11.638125 -0.3790625 13.948125 -0.0390625 16.328125 C8.2109375 16.658125 16.4609375 16.988125 24.9609375 17.328125 C24.9609375 20.628125 24.9609375 23.928125 24.9609375 27.328125 C20.39877285 27.47344535 15.83720388 27.56220977 11.2734375 27.640625 C9.33307617 27.7034668 9.33307617 27.7034668 7.35351562 27.76757812 C5.48276367 27.79174805 5.48276367 27.79174805 3.57421875 27.81640625 C2.42735596 27.84259033 1.28049316 27.86877441 0.09887695 27.89575195 C-4.00770432 27.15290581 -5.4355891 25.51164688 -8.0390625 22.328125 C-9.94345214 18.06482373 -10.33538162 14.28453876 -10.3515625 9.640625 C-10.36832031 8.52300781 -10.38507813 7.40539062 -10.40234375 6.25390625 C-10.0390625 3.328125 -10.0390625 3.328125 -8.95629883 1.66577148 C-6.02933499 -0.37635698 -3.53067098 -0.02584613 0 0 Z " fill="#082A57" transform="translate(248.0390625,91.671875)"/>
<path d="M0 0 C0.88945312 -0.01160156 1.77890625 -0.02320312 2.6953125 -0.03515625 C7.59467857 -0.01321879 11.04875423 0.14933229 15 3.375 C17.03671629 6.38158118 17 7.56596596 17 11.375 C16.01 11.375 15.02 11.375 14 11.375 C13.7525 10.405625 13.505 9.43625 13.25 8.4375 C12.39811023 5.3279308 12.39811023 5.3279308 10.421875 4.6953125 C6.94834802 4.23591055 3.49703821 4.19066761 0 4.1875 C-0.7115625 4.17525391 -1.423125 4.16300781 -2.15625 4.15039062 C-5.903007 4.1399053 -8.88560609 4.15599434 -12 6.375 C-13.38550197 9.14600394 -13.1877467 11.3084706 -13 14.375 C-11.27773504 17.62349977 -11.27773504 17.62349977 -8 18.375 C-6.57786938 18.47559142 -5.15208668 18.52945209 -3.7265625 18.55078125 C-2.9015625 18.57462891 -2.0765625 18.59847656 -1.2265625 18.62304688 C0.49975307 18.66581595 2.2263912 18.6971749 3.953125 18.71679688 C9.20372934 18.89263487 12.22020789 19.36179444 16 23.375 C17.73403022 26.84306043 17.46579045 30.5830721 17 34.375 C15.13357265 37.74892635 13.8710232 39.01492636 10.31640625 40.484375 C3.41076105 42.33889456 -5.40317047 42.68763144 -12.25 40.3125 C-15.97086406 37.69098214 -16.66610981 35.69052709 -18 31.375 C-18 30.715 -18 30.055 -18 29.375 C-16.68 29.375 -15.36 29.375 -14 29.375 C-13.71125 30.15875 -13.4225 30.9425 -13.125 31.75 C-12.15087746 34.47171632 -12.15087746 34.47171632 -10 36.375 C-6.7086564 36.84946383 -3.38420115 36.74536399 -0.0625 36.75 C0.85724609 36.77449219 1.77699219 36.79898438 2.72460938 36.82421875 C3.60826172 36.82808594 4.49191406 36.83195312 5.40234375 36.8359375 C6.61651978 36.84826416 6.61651978 36.84826416 7.85522461 36.86083984 C10.15482668 36.54101416 10.15482668 36.54101416 11.79516602 34.57275391 C13.61552775 31.25220753 12.92652224 28.94872866 12 25.375 C8.92027734 23.32185156 8.24379549 23.12953706 4.76171875 23.1015625 C3.94123047 23.0809375 3.12074219 23.0603125 2.27539062 23.0390625 C0.56194718 23.0131992 -1.15162785 22.99486379 -2.86523438 22.984375 C-8.3469218 22.830082 -11.72265348 22.14952365 -16 18.375 C-17.53211716 15.80379992 -17.92214952 13.35556126 -18 10.375 C-16.9383159 6.56542765 -16.05061937 4.25702683 -13.00390625 1.69921875 C-8.66223499 -0.21472996 -4.69158863 -0.06119463 0 0 Z " fill="#0F294E" transform="translate(401,74.625)"/>
<path d="M0 0 C1.2684375 0.12375 1.2684375 0.12375 2.5625 0.25 C4.6525509 3.38507636 4.81404352 4.10516741 4.82128906 7.67382812 C4.82759338 8.56485229 4.83389771 9.45587646 4.84039307 10.37390137 C4.8363446 11.33332642 4.83229614 12.29275146 4.828125 13.28125 C4.83003845 14.26871216 4.8319519 15.25617432 4.83392334 16.27355957 C4.8352845 18.36157486 4.8315929 20.44959862 4.82324219 22.53759766 C4.81254181 25.73749767 4.82313994 28.93683624 4.8359375 32.13671875 C4.83461589 34.16406374 4.83205348 36.19140838 4.828125 38.21875 C4.83217346 39.17817505 4.83622192 40.1376001 4.84039307 41.12609863 C4.83408875 42.0171228 4.82778442 42.90814697 4.82128906 43.82617188 C4.81890228 45.00173645 4.81890228 45.00173645 4.81646729 46.2010498 C4.5625 48.25 4.5625 48.25 2.5625 51.25 C0 51.5 0 51.5 -2.4375 51.25 C-4.0515925 49.6359075 -3.56484318 47.88523592 -3.56689453 45.65429688 C-3.57004669 44.67658325 -3.57319885 43.69886963 -3.57644653 42.69152832 C-3.5744223 41.62801147 -3.57239807 40.56449463 -3.5703125 39.46875 C-3.57126923 38.38493042 -3.57222595 37.30111084 -3.57321167 36.18444824 C-3.57389365 33.8877761 -3.57203811 31.59110205 -3.56787109 29.29443359 C-3.56252312 25.76525572 -3.5678155 22.23620513 -3.57421875 18.70703125 C-3.57355797 16.48177055 -3.57227682 14.25650993 -3.5703125 12.03125 C-3.57233673 10.96773315 -3.57436096 9.90421631 -3.57644653 8.80847168 C-3.57329437 7.83075806 -3.57014221 6.85304443 -3.56689453 5.84570312 C-3.56609894 4.98046021 -3.56530334 4.11521729 -3.56448364 3.22375488 C-3.3745466 0.2714915 -2.9541419 0.30298891 0 0 Z " fill="#0A2A56" transform="translate(158.4375,110.75)"/>
<path d="M0 0 C21.72773537 0 21.72773537 0 29.0234375 5.53515625 C33.36106892 10.43693049 34.87146734 15.47237716 35 22 C34.0526115 28.17735971 31.42651794 32.67642434 27 37 C21.50791424 40.64702084 16.46503996 40.35372379 10.125 40.1875 C6.78375 40.125625 3.4425 40.06375 0 40 C0 26.8 0 13.6 0 0 Z M3 3 C3 14.22 3 25.44 3 37 C16.28503728 38.10689424 16.28503728 38.10689424 26 33 C30.5911495 28.04639133 31.35770733 24.06967961 31.28125 17.50390625 C30.73640815 12.65330032 28.03752378 9.98291726 24.625 6.75 C17.34678242 1.89785494 12.08527562 3 3 3 Z " fill="#0F2A51" transform="translate(291,75)"/>
<path d="M0 0 C11.55 0 23.1 0 35 0 C35 2.64 35 5.28 35 8 C33.29507119 9.70492881 31.15465739 9.1280442 28.88098145 9.13894653 C28.16744507 9.1369223 27.45390869 9.13489807 26.71875 9.1328125 C25.99006714 9.13376923 25.26138428 9.13472595 24.51062012 9.13571167 C22.9672029 9.13639335 21.42378283 9.13453988 19.88037109 9.13037109 C17.510026 9.12502262 15.13987041 9.13031642 12.76953125 9.13671875 C11.27343708 9.13605797 9.77734303 9.1347768 8.28125 9.1328125 C7.21094543 9.13584885 7.21094543 9.13584885 6.11901855 9.13894653 C1.11495191 9.11495191 1.11495191 9.11495191 0 8 C0 5.36 0 2.72 0 0 Z " fill="#082A58" transform="translate(238,74)"/>
<path d="M0 0 C0.99 0 1.98 0 3 0 C3.0093457 0.71542969 3.01869141 1.43085937 3.02832031 2.16796875 C3.08238845 5.44598192 3.16596471 8.72262361 3.25 12 C3.26417969 13.12535156 3.27835937 14.25070313 3.29296875 15.41015625 C3.49626197 22.36278449 4.26770656 27.0841405 8 33 C11.56786088 36.26204423 15.1153386 36.52636807 19.78515625 36.34765625 C23.33943214 35.78975404 25.3595828 34.38894889 28 32 C32.10421866 26.14530736 31.5571652 19.49922948 31.6875 12.625 C31.72166016 11.41199219 31.75582031 10.19898437 31.79101562 8.94921875 C31.87322375 5.96623819 31.94246526 2.98354158 32 0 C32.99 0 33.98 0 35 0 C35.11668418 4.52061442 35.18741645 9.04083847 35.25 13.5625 C35.28351563 14.83931641 35.31703125 16.11613281 35.3515625 17.43164062 C35.42503577 24.50344314 35.424974 29.33377647 31 35 C25.82736384 39.79415059 21.6375601 40.35871934 14.79296875 40.27734375 C10.48028987 39.84909172 8.43630844 38.66489226 5 36 C1.00831638 30.85282901 -0.12782949 27.22768122 -0.09765625 20.80078125 C-0.09443359 19.59228516 -0.09121094 18.38378906 -0.08789062 17.13867188 C-0.07951172 15.87603516 -0.07113281 14.61339844 -0.0625 13.3125 C-0.05573242 11.40114258 -0.05573242 11.40114258 -0.04882812 9.45117188 C-0.03702873 6.30073436 -0.02056597 3.15039051 0 0 Z " fill="#122B50" transform="translate(337,75)"/>
<path d="M0 0 C11.55 0 23.1 0 35 0 C35 0.99 35 1.98 35 3 C29.72 3 24.44 3 19 3 C19 15.54 19 28.08 19 41 C17.68 40.67 16.36 40.34 15 40 C15 27.79 15 15.58 15 3 C10.05 3 5.1 3 0 3 C0 2.01 0 1.02 0 0 Z " fill="#0D284C" transform="translate(430,75)"/>
<path d="M0 0 C2.5 0.125 2.5 0.125 3.5 1.125 C3.5991918 2.73583745 3.6307982 4.35095644 3.6328125 5.96484375 C3.63474609 7.4353418 3.63474609 7.4353418 3.63671875 8.93554688 C3.63285156 9.96744141 3.62898437 10.99933594 3.625 12.0625 C3.62886719 13.09052734 3.63273438 14.11855469 3.63671875 15.17773438 C3.63542969 16.15935547 3.63414062 17.14097656 3.6328125 18.15234375 C3.63168457 19.05718506 3.63055664 19.96202637 3.62939453 20.89428711 C3.5 23.125 3.5 23.125 2.5 25.125 C0.83388095 25.167721 -0.83382885 25.16563832 -2.5 25.125 C-4.18516954 23.43983046 -3.63008019 21.33732212 -3.6328125 19.03125 C-3.63474609 17.48630859 -3.63474609 17.48630859 -3.63671875 15.91015625 C-3.63285156 14.82605469 -3.62898437 13.74195313 -3.625 12.625 C-3.62886719 11.54089844 -3.63273438 10.45679688 -3.63671875 9.33984375 C-3.63542969 8.30988281 -3.63414062 7.27992188 -3.6328125 6.21875 C-3.63168457 5.26677734 -3.63055664 4.31480469 -3.62939453 3.33398438 C-3.44416981 0.17188384 -3.18007539 0.15900377 0 0 Z " fill="#092A59" transform="translate(142.5,136.875)"/>
<path d="M0 0 C1.98 0 3.96 0 6 0 C6 7.92 6 15.84 6 24 C4.35 24.33 2.7 24.66 1 25 C0 24 0 24 -0.11352539 21.68334961 C-0.10828857 20.68311768 -0.10305176 19.68288574 -0.09765625 18.65234375 C-0.09443359 17.57275391 -0.09121094 16.49316406 -0.08789062 15.38085938 C-0.07951172 14.24455078 -0.07113281 13.10824219 -0.0625 11.9375 C-0.05798828 10.79732422 -0.05347656 9.65714844 -0.04882812 8.48242188 C-0.03699747 5.65489649 -0.0205141 2.8274736 0 0 Z " fill="#0B2A55" transform="translate(171,137)"/>
<path d="M0 0 C4.39656173 -0.02465504 8.7930872 -0.04283842 13.18969727 -0.05493164 C14.68644918 -0.05997121 16.18319616 -0.06680287 17.67993164 -0.07543945 C19.82699807 -0.08752159 21.97399962 -0.09323191 24.12109375 -0.09765625 C26.06133423 -0.10551147 26.06133423 -0.10551147 28.04077148 -0.11352539 C31 0 31 0 32 1 C32.125 4.5 32.125 4.5 32 8 C31 9 31 9 28.59155273 9.11352539 C27.54942627 9.10828857 26.5072998 9.10305176 25.43359375 9.09765625 C24.30888672 9.09443359 23.18417969 9.09121094 22.02539062 9.08789062 C20.84138672 9.07951172 19.65738281 9.07113281 18.4375 9.0625 C17.24962891 9.05798828 16.06175781 9.05347656 14.83789062 9.04882812 C11.89187774 9.03699675 8.94596319 9.02051287 6 9 C6.33 11.31 6.66 13.62 7 16 C15.25 16.33 23.5 16.66 32 17 C32 20.3 32 23.6 32 27 C31.67 27 31.34 27 31 27 C31 24.03 31 21.06 31 18 C30.32420898 18.02094727 29.64841797 18.04189453 28.95214844 18.06347656 C25.88491746 18.14671643 22.81792418 18.19868466 19.75 18.25 C18.68652344 18.28351563 17.62304688 18.31703125 16.52734375 18.3515625 C15.50253906 18.36445312 14.47773438 18.37734375 13.421875 18.390625 C12.47924805 18.41157227 11.53662109 18.43251953 10.56542969 18.45410156 C8 18 8 18 5.66113281 16.41308594 C4 14 4 14 4 7 C16.87 7.495 16.87 7.495 30 8 C30 5.69 30 3.38 30 1 C20.1 1 10.2 1 0 1 C0 0.67 0 0.34 0 0 Z " fill="#142B4A" transform="translate(241,92)"/>
<path d="M0 0 C10.89 0 21.78 0 33 0 C33 2.64 33 5.28 33 8 C31.29507119 9.70492881 29.15465739 9.1280442 26.88098145 9.13894653 C26.16744507 9.1369223 25.45390869 9.13489807 24.71875 9.1328125 C23.99006714 9.13376923 23.26138428 9.13472595 22.51062012 9.13571167 C20.9672029 9.13639335 19.42378283 9.13453988 17.88037109 9.13037109 C15.510026 9.12502262 13.13987041 9.13031642 10.76953125 9.13671875 C9.27343708 9.13605797 7.77734303 9.1347768 6.28125 9.1328125 C5.21094543 9.13584885 5.21094543 9.13584885 4.11901855 9.13894653 C-0.88504809 9.11495191 -0.88504809 9.11495191 -2 8 C-2.04092937 5.66702567 -2.04241723 3.33294775 -2 1 C-1.67 1 -1.34 1 -1 1 C-1 2.98 -1 4.96 -1 7 C9.56 7 20.12 7 31 7 C29.74458443 4.48916886 28.49936512 4.12874554 26 3 C26.33 2.67 26.66 2.34 27 2 C18.09 1.67 9.18 1.34 0 1 C0 0.67 0 0.34 0 0 Z " fill="#0F294B" transform="translate(240,74)"/>
<path d="M0 0 C2.12076269 3.87820746 2.37769092 6.54324717 2 11 C0.45530727 15.6340782 -0.77415117 18.49177527 -5 21 C-7.47363281 21.34057617 -7.47363281 21.34057617 -10.203125 21.29296875 C-11.67265625 21.2784668 -11.67265625 21.2784668 -13.171875 21.26367188 C-14.69554688 21.2259668 -14.69554688 21.2259668 -16.25 21.1875 C-17.28125 21.17396484 -18.3125 21.16042969 -19.375 21.14648438 C-21.91689049 21.11118034 -24.4585119 21.05737473 -27 21 C-27 26.94 -27 32.88 -27 39 C-29.56498179 35.15252731 -29.04731485 32.27789574 -28.6875 27.875 C-28.63916016 27.13378906 -28.59082031 26.39257812 -28.54101562 25.62890625 C-28.14501232 20.14501232 -28.14501232 20.14501232 -27 19 C-25.36743242 18.84285346 -23.72864662 18.74914586 -22.08984375 18.68359375 C-21.10048828 18.64169922 -20.11113281 18.59980469 -19.09179688 18.55664062 C-18.05087891 18.51732422 -17.00996094 18.47800781 -15.9375 18.4375 C-14.89271484 18.39431641 -13.84792969 18.35113281 -12.77148438 18.30664062 C-10.18113116 18.20018775 -7.59067814 18.0981724 -5 18 C-1.69698211 11.24675423 -1.69698211 11.24675423 -0.25 3.9375 C-0.1675 2.638125 -0.085 1.33875 0 0 Z " fill="#0F294B" transform="translate(119,80)"/>
<path d="M0 0 C4.32326033 -0.0992011 8.64591024 -0.17162265 12.9699707 -0.21972656 C14.43948921 -0.23978825 15.90892841 -0.26704478 17.37817383 -0.30175781 C19.49580487 -0.35052141 21.61237687 -0.37302161 23.73046875 -0.390625 C25.00301514 -0.41157227 26.27556152 -0.43251953 27.58666992 -0.45410156 C31.56627255 0.07533559 33.22403376 1.14949116 36 4 C36 4.66 36 5.32 36 6 C35.01 6 34.02 6 33 6 C32.505 4.02 32.505 4.02 32 2 C21.77 1.67 11.54 1.34 1 1 C1.33 2.98 1.66 4.96 2 7 C2.7113208 6.98952637 3.4226416 6.97905273 4.15551758 6.96826172 C7.37447586 6.92671999 10.59337776 6.90067961 13.8125 6.875 C14.93205078 6.85824219 16.05160156 6.84148437 17.20507812 6.82421875 C18.27822266 6.81777344 19.35136719 6.81132813 20.45703125 6.8046875 C21.9416687 6.78897705 21.9416687 6.78897705 23.45629883 6.77294922 C26 7 26 7 29 9 C28.67 9.99 28.34 10.98 28 12 C27.67 11.34 27.34 10.68 27 10 C18.09 9.67 9.18 9.34 0 9 C0 6.03 0 3.06 0 0 Z " fill="#112A47" transform="translate(83,74)"/>
<path d="M0 0 C2.5 0.125 2.5 0.125 3.5 1.125 C3.5991918 2.73583745 3.6307982 4.35095644 3.6328125 5.96484375 C3.63474609 7.4353418 3.63474609 7.4353418 3.63671875 8.93554688 C3.63285156 9.96744141 3.62898437 10.99933594 3.625 12.0625 C3.62886719 13.09052734 3.63273438 14.11855469 3.63671875 15.17773438 C3.63542969 16.15935547 3.63414062 17.14097656 3.6328125 18.15234375 C3.63168457 19.05718506 3.63055664 19.96202637 3.62939453 20.89428711 C3.5 23.125 3.5 23.125 2.5 25.125 C0.83388095 25.167721 -0.83382885 25.16563832 -2.5 25.125 C-4.18516954 23.43983046 -3.63008019 21.33732212 -3.6328125 19.03125 C-3.63474609 17.48630859 -3.63474609 17.48630859 -3.63671875 15.91015625 C-3.63285156 14.82605469 -3.62898437 13.74195313 -3.625 12.625 C-3.62886719 11.54089844 -3.63273438 10.45679688 -3.63671875 9.33984375 C-3.63542969 8.30988281 -3.63414062 7.27992188 -3.6328125 6.21875 C-3.63168457 5.26677734 -3.63055664 4.31480469 -3.62939453 3.33398438 C-3.44416981 0.17188384 -3.18007539 0.15900377 0 0 Z M-1.5 2.125 C-2.55619003 6.40797531 -2.61702092 10.55485646 -2.5625 14.9375 C-2.55798828 15.63037109 -2.55347656 16.32324219 -2.54882812 17.03710938 C-2.53713156 18.73311068 -2.51919924 20.42906703 -2.5 22.125 C-0.85 22.455 0.8 22.785 2.5 23.125 C2.5 16.525 2.5 9.925 2.5 3.125 C1.18 2.795 -0.14 2.465 -1.5 2.125 Z " fill="#112A49" transform="translate(142.5,136.875)"/>
<path d="M0 0 C0.99 0.33 1.98 0.66 3 1 C3.6875 3.0625 3.6875 3.0625 4 5 C3.38511719 5.09023438 2.77023438 5.18046875 2.13671875 5.2734375 C-0.08952699 5.81008985 -0.08952699 5.81008985 -1.23046875 7.6015625 C-2.85168508 11.02927703 -3.967248 13.76664198 -4.5 17.5625 C-5.12741867 21.87600336 -6.68350945 24.33845041 -9 28 C-9.66 28 -10.32 28 -11 28 C-8.97986427 21.75492665 -6.76356291 15.6131017 -4.375 9.5 C-4.06304687 8.69046875 -3.75109375 7.8809375 -3.4296875 7.046875 C-3.130625 6.27859375 -2.8315625 5.5103125 -2.5234375 4.71875 C-2.25450684 4.02716797 -1.98557617 3.33558594 -1.70849609 2.62304688 C-1 1 -1 1 0 0 Z " fill="#0E2649" transform="translate(156,48)"/>
<path d="M0 0 C1.2684375 0.12375 1.2684375 0.12375 2.5625 0.25 C5.09025351 4.04163027 4.78693035 7.05874031 4.6875 11.4375 C4.67847656 12.18708984 4.66945312 12.93667969 4.66015625 13.70898438 C4.63662578 15.55612654 4.60075561 17.40310412 4.5625 19.25 C4.2325 19.25 3.9025 19.25 3.5625 19.25 C2.9025 15.29 2.2425 11.33 1.5625 7.25 C-1.3629644 7.0263932 -1.3629644 7.0263932 -3.4375 8.25 C-3.47991723 5.91705225 -3.47842937 3.58297433 -3.4375 1.25 C-2.4375 0.25 -2.4375 0.25 0 0 Z " fill="#10264D" transform="translate(158.4375,110.75)"/>
<path d="M0 0 C2.7053871 4.05808065 5 8.04889399 5 13 C-0.28 13 -5.56 13 -11 13 C-11.33 11.68 -11.66 10.36 -12 9 C-10.515 9.99 -10.515 9.99 -9 11 C-6.4745777 11.0255089 -6.4745777 11.0255089 -3.8125 10.625 C-2.224375 10.41875 -0.63625 10.2125 1 10 C0.67 6.7 0.34 3.4 0 0 Z " fill="#10274E" transform="translate(183,113)"/>
<path d="M0 0 C4.62 0 9.24 0 14 0 C14 0.99 14 1.98 14 3 C9.38 3 4.76 3 0 3 C0 2.01 0 1.02 0 0 Z " fill="#182D4C" transform="translate(451,75)"/>
<path d="M0 0 C0.33 0 0.66 0 1 0 C1.60868102 12.4666891 1.60868102 12.4666891 -2 18 C-5.1875 18.9375 -5.1875 18.9375 -8 19 C-6.6875 17.5 -6.6875 17.5 -5 16 C-4.01 16 -3.02 16 -2 16 C-2.020625 15.21625 -2.04125 14.4325 -2.0625 13.625 C-2 11 -2 11 -1 9 C-0.77532169 7.46331135 -0.59203195 5.92031946 -0.4375 4.375 C-0.35371094 3.55773437 -0.26992187 2.74046875 -0.18359375 1.8984375 C-0.12300781 1.27195312 -0.06242187 0.64546875 0 0 Z " fill="#11284D" transform="translate(78,100)"/>
<path d="M0 0 C0.33 0 0.66 0 1 0 C1.04241723 2.33294775 1.04092937 4.66702567 1 7 C0 8 0 8 -2.04125977 8.11352539 C-2.91580811 8.10828857 -3.79035645 8.10305176 -4.69140625 8.09765625 C-5.63564453 8.09443359 -6.57988281 8.09121094 -7.55273438 8.08789062 C-8.54595703 8.07951172 -9.53917969 8.07113281 -10.5625 8.0625 C-11.55958984 8.05798828 -12.55667969 8.05347656 -13.58398438 8.04882812 C-16.05604849 8.03700007 -18.52799518 8.02051849 -21 8 C-21 7.67 -21 7.34 -21 7 C-14.73 7 -8.46 7 -2 7 C-2 6.34 -2 5.68 -2 5 C-1.34 5 -0.68 5 0 5 C0 3.35 0 1.7 0 0 Z " fill="#132849" transform="translate(233,75)"/>
<path d="M0 0 C1.48199902 0.44909061 2.96055236 0.90956564 4.4375 1.375 C5.26121094 1.63023438 6.08492187 1.88546875 6.93359375 2.1484375 C9 3 9 3 10 5 C6.63295715 5.2295711 4.58629732 5.33943529 1.625 3.625 C1.08875 3.08875 0.5525 2.5525 0 2 C0 1.34 0 0.68 0 0 Z " fill="#0D2545" transform="translate(241,114)"/>
<path d="M0 0 C0.33 0.66 0.66 1.32 1 2 C1.99 2 2.98 2 4 2 C4.33 4.31 4.66 6.62 5 9 C3 6 3 6 3 3 C2.34 3 1.68 3 1 3 C0.67 4.98 0.34 6.96 0 9 C-0.33 9 -0.66 9 -1 9 C-1.09765625 2.84765625 -1.09765625 2.84765625 -1 1 C-0.67 0.67 -0.34 0.34 0 0 Z " fill="#132A4F" transform="translate(155,82)"/>
<path d="M0 0 C1.1577506 3.47325181 1.06866652 6.36067448 1 10 C-0.32 10 -1.64 10 -3 10 C-2.39009109 6.44219804 -1.4216319 3.3171411 0 0 Z " fill="#132845" transform="translate(129,116)"/>
<path d="M0 0 C1.2065625 0.0309375 1.2065625 0.0309375 2.4375 0.0625 C2.4375 1.3825 2.4375 2.7025 2.4375 4.0625 C1.4475 3.7325 0.4575 3.4025 -0.5625 3.0625 C-1.5525 3.5575 -1.5525 3.5575 -2.5625 4.0625 C-2.8925 3.0725 -3.2225 2.0825 -3.5625 1.0625 C-2.5625 0.0625 -2.5625 0.0625 0 0 Z " fill="#0F2848" transform="translate(158.5625,110.9375)"/>
</svg>
